# xmcd
#
# Track frame offsets: 
#        150
#        14438
#        27313
#        38388
#        49613
#        62188
#        75038
#        88625
#        101563
#        115225
#        126725
#        140838
#        155475
#        169238
#        181263
#        194063
#        206550
#        220125
#        234575
#        247313
#        260425
#        272238
#
# Disc length: 3786 seconds
#
# Revision: 0
# Processed by: cddbd v1.5.1PL2 Copyright (c) Steve Scherf et al.
# Submitted via: ExactAudioCopy v0.95b2
#
DISCID=430ec816
DTITLE=Various Artist - Chicago Jump Bands - Early R&B Vol. 1 (1945 - 53)
DYEAR=1900
DGENRE=Blues
TTITLE0=Charles Gray - I'm a Bum Again
TTITLE1=Charles Gray - Crazy Woman Blues
TTITLE2=Robert Caffery - Ida Bee
TTITLE3=Robert Caffery - Blodie's Blues
TTITLE4=Memphis Seven - Farmer's Daughter Blues
TTITLE5=Memphis Seven - Grunt Meat Blues
TTITLE6=Chicago Allstars - No No Baby
TTITLE7=Chicago Allstars - I Love You Mama
TTITLE8=Chicago Allstars - Hey Hey Big Mama
TTITLE9=Chicago Allstars - Green Light
TTITLE10=Chicago Allstars - Strange Strange Lover
TTITLE11=Chicago Allstars - Are You Getting Married, Brother?
TTITLE12=Bill Crosby - That's My Gal
TTITLE13=Bill Crosby - Come For a Ride
TTITLE14=Bill Crosby - Those Dog-Gone Blues
TTITLE15=Bill Crosby - Eat, Drink and be Merry
TTITLE16=Bill Crosby - Hip Chick Blues
TTITLE17=Bill Crosby - Sneaking Woman Blues
TTITLE18=Big Bertha Henderson - Rock Bertha Rock
TTITLE19=Big Bertha Henderson - Tears In My Eyes
TTITLE20=Mitzi Mars - I'm Glad
TTITLE21=Mitzi Mars - Roll 'Em
EXTD=
EXTT0=
EXTT1=
EXTT2=
EXTT3=
EXTT4=
EXTT5=
EXTT6=
EXTT7=
EXTT8=
EXTT9=
EXTT10=
EXTT11=
EXTT12=
EXTT13=
EXTT14=
EXTT15=
EXTT16=
EXTT17=
EXTT18=
EXTT19=
EXTT20=
EXTT21=
PLAYORDER=
